<?xml version="1.0" encoding="utf-8"?><!-- Uploaded to: SVG Repo, www.svgrepo.com, Generator: SVG Repo Mixer Tools -->
<svg fill="#666" width="70px" height="70px" viewBox="0 0 60 60" xmlns="http://www.w3.org/2000/svg">
    <path fill="#BBB" d="m9 12c3.309 0 6-2.691 6-6s-2.691-6-6-6-6 2.691-6 6 2.691 6 6 6zm0-10c2.206 0 4 1.794 4 4s-1.794 4-4 4-4-1.794-4-4 1.794-4 4-4zm15 16v2h-2.465l-2.659 3.988-3-6-1.341 2.012h-3.535v-2h2.465l2.659-3.988 3 6 1.341-2.012zm-11.606-2h-7.394c-1.654 0-3 1.346-3 3v5h-2v-5c0-2.757 2.243-5 5-5h8c.233 0 .457.038.682.069l-1.287 1.931z"/>
    <path fill="#BBB" d="m38 12c3.309 0 6-2.691 6-6s-2.691-6-6-6-6 2.691-6 6 2.691 6 6 6zm0-10c2.206 0 4 1.794 4 4s-1.794 4-4 4-4-1.794-4-4 1.794-4 4-4zm15 16v2h-2.465l-2.659 3.988-3-6-1.341 2.012h-3.535v-2h2.465l2.659-3.988 3 6 1.341-2.012zm-11.606-2h-7.394c-1.654 0-3 1.346-3 3v5h-2v-5c0-2.757 2.243-5 5-5h8c.233 0 .457.038.682.069l-1.287 1.931z"/>
    <path fill="#BBB" d="m9 42c3.309 0 6-2.691 6-6s-2.691-6-6-6-6 2.691-6 6 2.691 6 6 6zm0-10c2.206 0 4 1.794 4 4s-1.794 4-4 4-4-1.794-4-4 1.794-4 4-4zm15 16v2h-2.465l-2.659 3.988-3-6-1.341 2.012h-3.535v-2h2.465l2.659-3.988 3 6 1.341-2.012zm-11.606-2h-7.394c-1.654 0-3 1.346-3 3v5h-2v-5c0-2.757 2.243-5 5-5h8c.233 0 .457.038.682.069l-1.287 1.931z"/>
    <path fill="#BBC" d="m38 42c3.309 0 6-2.691 6-6s-2.691-6-6-6-6 2.691-6 6 2.691 6 6 6zm0-10c2.206 0 4 1.794 4 4s-1.794 4-4 4-4-1.794-4-4 1.794-4 4-4zm15 16v2h-2.465l-2.659 3.988-3-6-1.341 2.012h-3.535v-2h2.465l2.659-3.988 3 6 1.341-2.012zm-11.606-2h-7.394c-1.654 0-3 1.346-3 3v5h-2v-5c0-2.757 2.243-5 5-5h8c.233 0 .457.038.682.069l-1.287 1.931z"/>
</svg>

