<?xml version="1.0" encoding="utf-8"?><!-- Uploaded to: SVG Repo, www.svgrepo.com, Generator: SVG Repo Mixer Tools -->
<svg id="Layer_3" viewBox="0 0 60 60" xmlns="http://www.w3.org/2000/svg" fill="var(--menu-icon-color">
    <path d="m9 12c3.309 0 6-2.691 6-6s-2.691-6-6-6-6 2.691-6 6 2.691 6 6 6zm0-10c2.206 0 4 1.794 4 4s-1.794 4-4 4-4-1.794-4-4 1.794-4 4-4zm15 16v2h-2.465l-2.659 3.988-3-6-1.341 2.012h-3.535v-2h2.465l2.659-3.988 3 6 1.341-2.012zm-11.606-2h-7.394c-1.654 0-3 1.346-3 3v5h-2v-5c0-2.757 2.243-5 5-5h8c.233 0 .457.038.682.069l-1.287 1.931z"/>
    <path d="m39 12c3.309 0 6-2.691 6-6s-2.691-6-6-6-6 2.691-6 6 2.691 6 6 6zm0-10c2.206 0 4 1.794 4 4s-1.794 4-4 4-4-1.794-4-4 1.794-4 4-4zm15 16v2h-2.465l-2.659 3.988-3-6-1.341 2.012h-3.535v-2h2.465l2.659-3.988 3 6 1.341-2.012zm-11.606-2h-7.394c-1.654 0-3 1.346-3 3v5h-2v-5c0-2.757 2.243-5 5-5h8c.233 0 .457.038.682.069l-1.287 1.931z"/>
    <path d="m9 45c3.309 0 6-2.691 6-6s-2.691-6-6-6-6 2.691-6 6 2.691 6 6 6zm0-10c2.206 0 4 1.794 4 4s-1.794 4-4 4-4-1.794-4-4 1.794-4 4-4zm15 16v2h-2.465l-2.659 3.988-3-6-1.341 2.012h-3.535v-2h2.465l2.659-3.988 3 6 1.341-2.012zm-11.606-2h-7.394c-1.654 0-3 1.346-3 3v5h-2v-5c0-2.757 2.243-5 5-5h8c.233 0 .457.038.682.069l-1.287 1.931z"/>
    <path d="m39 45c3.309 0 6-2.691 6-6s-2.691-6-6-6-6 2.691-6 6 2.691 6 6 6zm0-10c2.206 0 4 1.794 4 4s-1.794 4-4 4-4-1.794-4-4 1.794-4 4-4zm15 16v2h-2.465l-2.659 3.988-3-6-1.341 2.012h-3.535v-2h2.465l2.659-3.988 3 6 1.341-2.012zm-11.606-2h-7.394c-1.654 0-3 1.346-3 3v5h-2v-5c0-2.757 2.243-5 5-5h8c.233 0 .457.038.682.069l-1.287 1.931z"/>
    <path d="M881. 976.372c52.61 0 95.256-42.646 95.256-95.256V142.883c0-52.603-42.65-95.256-95.256-95.256H142.883c-52.606 0-95.256 42.653-95.256 95.256v738.233c0 52.61 42.646 95.256 95.256 95.256h738.233zm0 47.628H142.883C63.969 1024-.001 960.031-.001 881.116V142.883C-.001 63.977 63.972-.001 142.883-.001h738.233C960.027-.001 1024 63.977 1024 142.883v738.233C1024 960.03 960.031 1024 881.116 1024z"/>
</svg>
